<svg width="428" height="363" viewBox="0 0 428 363" fill="none" xmlns="http://www.w3.org/2000/svg">
<path d="M160.905 108C160.089 108 159.417 107.736 158.889 107.208C158.361 106.68 158.097 106.008 158.097 105.192V54.576C158.097 53.76 158.361 53.088 158.889 52.56C159.417 52.032 160.089 51.768 160.905 51.768H175.305C178.857 51.768 182.001 52.56 184.737 54.144C187.473 55.68 189.609 57.816 191.145 60.552C192.681 63.288 193.449 66.456 193.449 70.056C193.449 73.56 192.681 76.68 191.145 79.416C189.609 82.104 187.473 84.24 184.737 85.824C182.001 87.36 178.857 88.128 175.305 88.128H163.713V105.192C163.713 106.008 163.449 106.68 162.921 107.208C162.393 107.736 161.721 108 160.905 108ZM163.713 82.728H175.305C177.753 82.728 179.937 82.2 181.857 81.144C183.777 80.04 185.265 78.528 186.321 76.608C187.425 74.688 187.977 72.504 187.977 70.056C187.977 67.512 187.425 65.28 186.321 63.36C185.265 61.44 183.777 59.928 181.857 58.824C179.937 57.72 177.753 57.168 175.305 57.168H163.713V82.728ZM208.879 108C206.959 108 205.231 107.472 203.695 106.416C202.207 105.36 201.031 103.896 200.167 102.024C199.351 100.152 198.943 97.992 198.943 95.544V54.504C198.943 53.688 199.183 53.04 199.663 52.56C200.191 52.032 200.863 51.768 201.679 51.768C202.495 51.768 203.143 52.032 203.623 52.56C204.151 53.04 204.415 53.688 204.415 54.504V95.544C204.415 97.608 204.823 99.288 205.639 100.584C206.503 101.88 207.583 102.528 208.879 102.528H210.679C211.399 102.528 211.975 102.792 212.407 103.32C212.839 103.8 213.055 104.448 213.055 105.264C213.055 106.08 212.743 106.752 212.119 107.28C211.543 107.76 210.775 108 209.815 108H208.879ZM223.584 108C222.72 108 222.024 107.76 221.496 107.28C221.016 106.752 220.776 106.056 220.776 105.192V71.424C220.776 70.56 221.016 69.888 221.496 69.408C222.024 68.88 222.72 68.616 223.584 68.616C224.4 68.616 225.048 68.88 225.528 69.408C226.056 69.888 226.32 70.56 226.32 71.424V105.192C226.32 106.056 226.056 106.752 225.528 107.28C225.048 107.76 224.4 108 223.584 108ZM223.512 61.128C222.456 61.128 221.544 60.744 220.776 59.976C220.008 59.208 219.624 58.272 219.624 57.168C219.624 55.968 220.008 55.032 220.776 54.36C221.592 53.64 222.528 53.28 223.584 53.28C224.592 53.28 225.48 53.64 226.248 54.36C227.064 55.032 227.472 55.968 227.472 57.168C227.472 58.272 227.088 59.208 226.32 59.976C225.552 60.744 224.616 61.128 223.512 61.128ZM257.212 108.36C253.324 108.36 249.868 107.52 246.844 105.84C243.868 104.112 241.516 101.736 239.788 98.712C238.108 95.688 237.268 92.232 237.268 88.344C237.268 84.408 238.06 80.952 239.644 77.976C241.276 74.952 243.508 72.576 246.34 70.848C249.172 69.12 252.436 68.256 256.132 68.256C259.78 68.256 262.948 69.096 265.636 70.776C268.372 72.408 270.484 74.688 271.972 77.616C273.46 80.544 274.204 83.88 274.204 87.624C274.204 88.392 273.964 89.016 273.484 89.496C273.004 89.928 272.38 90.144 271.612 90.144H241.012V85.536H272.188L269.092 87.768C269.14 84.984 268.636 82.488 267.58 80.28C266.524 78.072 265.012 76.344 263.044 75.096C261.124 73.848 258.82 73.224 256.132 73.224C253.396 73.224 250.996 73.872 248.932 75.168C246.868 76.464 245.26 78.264 244.108 80.568C243.004 82.824 242.452 85.416 242.452 88.344C242.452 91.272 243.076 93.864 244.324 96.12C245.62 98.376 247.372 100.152 249.58 101.448C251.788 102.744 254.332 103.392 257.212 103.392C258.94 103.392 260.668 103.104 262.396 102.528C264.172 101.904 265.588 101.136 266.644 100.224C267.172 99.792 267.772 99.576 268.444 99.576C269.116 99.528 269.692 99.696 270.172 100.08C270.796 100.656 271.108 101.28 271.108 101.952C271.156 102.624 270.892 103.2 270.316 103.68C268.732 105.024 266.716 106.152 264.268 107.064C261.82 107.928 259.468 108.36 257.212 108.36ZM246.412 60.768C245.644 60.768 244.972 60.552 244.396 60.12C243.868 59.64 243.604 58.992 243.604 58.176C243.604 57.408 243.868 56.784 244.396 56.304C244.972 55.824 245.644 55.584 246.412 55.584H265.06C265.828 55.584 266.476 55.824 267.004 56.304C267.58 56.784 267.868 57.408 267.868 58.176C267.868 58.992 267.58 59.64 267.004 60.12C266.476 60.552 265.828 60.768 265.06 60.768H246.412Z" fill="black"/>
<path fill-rule="evenodd" clip-rule="evenodd" d="M193.167 243H234.5C237.353 243 239.667 245.313 239.667 248.167V289.5C239.667 292.353 237.353 294.667 234.5 294.667H193.167C190.313 294.667 188 292.353 188 289.5V248.167C188 245.313 190.313 243 193.167 243ZM193.167 248.167V278.097L203.5 267.763L212.542 276.805L229.333 260.013L234.5 265.18V248.167H193.167ZM193.167 289.5V285.403L203.5 275.07L217.93 289.5H193.167ZM234.5 289.5H225.237L216.195 280.458L229.333 267.32L234.5 272.487V289.5ZM219 258.5C219 254.22 215.53 250.75 211.25 250.75C206.97 250.75 203.5 254.22 203.5 258.5C203.5 262.78 206.97 266.25 211.25 266.25C215.53 266.25 219 262.78 219 258.5ZM208.667 258.5C208.667 257.073 209.823 255.917 211.25 255.917C212.677 255.917 213.833 257.073 213.833 258.5C213.833 259.927 212.677 261.083 211.25 261.083C209.823 261.083 208.667 259.927 208.667 258.5Z" fill="#333333"/>
<rect opacity="0.2" x="-1" width="429" height="363" fill="black"/>
</svg>
